<?xml version="1.0" standalone="no"?><!DOCTYPE svg PUBLIC "-//W3C//DTD SVG 1.1//EN" "http://www.w3.org/Graphics/SVG/1.1/DTD/svg11.dtd"><svg t="1498443313382" class="icon" style="" viewBox="0 0 1024 1024" version="1.1" xmlns="http://www.w3.org/2000/svg" p-id="2532" xmlns:xlink="http://www.w3.org/1999/xlink" width="32" height="32"><defs><style type="text/css"></style></defs><path d="M512.293689 0.630357c-282.59624 0-511.684822 229.089605-511.684822 511.684822s229.089605 511.684822 511.684822 511.684822 511.684822-229.089605 511.684822-511.684822S794.889929 0.630357 512.293689 0.630357zM512.293689 976.030475c-256.102842 0-463.715297-207.612455-463.715297-463.715297S256.190847 48.600905 512.293689 48.600905s463.715297 207.612455 463.715297 463.715297S768.396531 976.030475 512.293689 976.030475z" p-id="2533"></path><path d="M512.293689 224.493937c-26.493397 0-47.970548 21.47715-47.970548 47.970548l-0.001023 191.881169-191.881169 0.001023c-26.493397 0-47.970548 21.47715-47.970548 47.970548s21.47715 47.970548 47.970548 47.970548l191.882192 0 0 191.882192c0 26.493397 21.47715 47.970548 47.970548 47.970548 26.493397 0 47.970548-21.47715 47.970548-47.970548L560.264237 560.28675l191.882192 0c26.493397 0 47.970548-21.47715 47.970548-47.970548 0-26.493397-21.47715-47.970548-47.970548-47.970548L560.264237 464.345654 560.264237 272.463462C560.264237 245.970064 538.787086 224.493937 512.293689 224.493937z" p-id="2534"></path></svg>