<?xml version="1.0" standalone="no"?><!DOCTYPE svg PUBLIC "-//W3C//DTD SVG 1.1//EN" "http://www.w3.org/Graphics/SVG/1.1/DTD/svg11.dtd"><svg t="1498396348560" class="icon" style="" viewBox="0 0 1024 1024" version="1.1" xmlns="http://www.w3.org/2000/svg" p-id="2516" xmlns:xlink="http://www.w3.org/1999/xlink" width="64" height="64"><defs><style type="text/css"></style></defs><path d="M888.305505 190.727902c15.614629-15.616676 40.930201-15.616676 56.544831 0l0 0c15.616676 15.614629 15.616676 40.930201 0 56.544831L539.117614 653.006478c-15.614629 15.616676-40.928155 15.616676-56.544831 0l0 0c-15.614629-15.614629-15.614629-40.930201 0-56.544831L888.305505 190.727902 888.305505 190.727902zM538.619264 596.461647c15.616676 15.614629 15.616676 40.930201 0 56.544831l0 0c-15.614629 15.616676-40.928155 15.616676-56.544831 0L76.340689 247.272733c-15.614629-15.614629-15.614629-40.930201 0-56.544831l0 0c15.616676-15.616676 40.930201-15.616676 56.546877 0L538.619264 596.461647 538.619264 596.461647zM538.619264 596.461647" p-id="2517" fill="#3f81c1"></path></svg>