<?xml version="1.0" standalone="no"?><!DOCTYPE svg PUBLIC "-//W3C//DTD SVG 1.1//EN" "http://www.w3.org/Graphics/SVG/1.1/DTD/svg11.dtd"><svg t="1498443327283" class="icon" style="" viewBox="0 0 1024 1024" version="1.1" xmlns="http://www.w3.org/2000/svg" p-id="3199" xmlns:xlink="http://www.w3.org/1999/xlink" width="32" height="32"><defs><style type="text/css"></style></defs><path d="M386.990351 752.645802 386.990351 359.958188c0-9.866718-8.003606-17.84953-17.851285-17.84953-9.849726 0-17.850261 7.982812-17.850261 17.84953l0 392.687614c0 9.850345 8.000536 17.851577 17.850261 17.851577C378.986745 770.497379 386.990351 762.496148 386.990351 752.645802zM529.793466 752.645802 529.793466 359.958188c0-9.866718-8.003606-17.84953-17.853331-17.84953-9.846656 0-17.848215 7.982812-17.848215 17.84953l0 392.687614c0 9.850345 8.001559 17.851577 17.848215 17.851577C521.788837 770.497379 529.793466 762.496148 529.793466 752.645802zM815.393554 324.259128c-9.845632 0-17.846168 7.983835-17.846168 17.84953l0 481.935264c0 19.697621-15.987768 35.700083-35.702569 35.700083L262.038521 859.744006c-19.715825 0-35.700523-16.002462-35.700523-35.700083L226.337999 342.109682c0-9.866718-8.001559-17.84953-17.850261-17.84953-8.3014 0-15.271424 5.681396-17.26286 13.373589-0.194436-0.107447-0.396036-0.204661-0.588425-0.316202l0 486.72843c0 39.429011 31.953022 71.39812 71.401046 71.39812l499.806295 0c39.430627 0 71.401046-31.969109 71.401046-71.39812L833.244839 342.109682C833.245862 332.242963 825.244303 324.259128 815.393554 324.259128zM869.04872 199.312418 663.473431 199.312418l-65.856545-65.853847c-3.810948-3.811816-8.844798-5.641487-13.840783-5.52176-0.146339-0.00307-0.287561-0.021489-0.4339-0.021489L440.541135 127.915321c-0.128942 0-0.254814 0.016373-0.382732 0.019443-4.979612-0.105401-9.991971 1.726318-13.789616 5.523807l-65.856545 65.853847L154.93593 199.312418c-9.848702 0-17.849238 7.984858-17.849238 17.850553 0 9.849322 8.000536 17.850553 17.849238 17.850553l214.203137 0c0.225137 0 0.444133-0.025583 0.667223-0.033769 5.0799 0.190335 10.221201-1.633197 14.097644-5.508457l65.856545-65.85487 124.462669 0 65.856545 65.85487c3.875419 3.876284 9.017744 5.698792 14.09662 5.508457 0.224113 0.008186 0.44311 0.033769 0.667223 0.033769l214.202113 0c9.848702 0 17.849238-8.001231 17.849238-17.850553C886.898981 207.297276 878.897422 199.312418 869.04872 199.312418zM672.592487 752.645802 672.592487 359.958188c0-9.866718-7.998489-17.84953-17.848215-17.84953s-17.851285 7.982812-17.851285 17.84953l0 392.687614c0 9.850345 8.001559 17.851577 17.851285 17.851577S672.592487 762.496148 672.592487 752.645802z" p-id="3200"></path></svg>