<?xml version="1.0" standalone="no"?><!DOCTYPE svg PUBLIC "-//W3C//DTD SVG 1.1//EN" "http://www.w3.org/Graphics/SVG/1.1/DTD/svg11.dtd"><svg t="1498396364556" class="icon" style="" viewBox="0 0 1024 1024" version="1.1" xmlns="http://www.w3.org/2000/svg" p-id="3278" xmlns:xlink="http://www.w3.org/1999/xlink" width="64" height="64"><defs><style type="text/css"></style></defs><path d="M161.738661 679.653371c0-39.708374-0.200568-76.340689 0.310062-112.961748 0.051165-3.659343 3.586688-8.606005 6.919597-10.689457 110.886483-69.269643 222.010373-138.157593 332.872297-207.465099 10.280134-6.426363 17.532305-2.13564 25.708522 2.954285 73.469292 45.734624 146.983609 91.399663 220.479507 137.090285 34.744315 21.599947 69.359694 43.411719 104.318904 64.658625 7.315616 4.446265 10.07445 9.360182 9.948583 17.978467-0.50756 34.788318-0.210801 69.589938-0.210801 107.209744-6.197142-3.653203-10.832719-6.258541-15.346523-9.064446-107.431801-66.792219-214.920908-133.494387-322.143954-200.621227-8.773827-5.492084-14.845103-5.765307-23.783683-0.164752-106.797351 66.919109-213.888392 133.37159-320.906777 199.938682C174.801165 671.695119 169.651888 674.806993 161.738661 679.653371z" p-id="3279" fill="#3f81c1"></path></svg>