<?xml version="1.0" standalone="no"?><!DOCTYPE svg PUBLIC "-//W3C//DTD SVG 1.1//EN" "http://www.w3.org/Graphics/SVG/1.1/DTD/svg11.dtd"><svg t="1498536906717" class="icon" style="" viewBox="0 0 1024 1024" version="1.1" xmlns="http://www.w3.org/2000/svg" p-id="17325" xmlns:xlink="http://www.w3.org/1999/xlink" width="64" height="64"><defs><style type="text/css"></style></defs><path d="M938.66496 298.66496v464.21504c0 70.69696-57.30304 128-128 128h-597.33504c-70.69696 0-128-57.30304-128-128v-464.21504c0-70.69696 57.30304-128 128-128H384v85.33504h-170.66496a42.66496 42.66496 0 0 0-42.66496 42.66496v464.21504a42.66496 42.66496 0 0 0 42.66496 42.66496h597.33504a42.66496 42.66496 0 0 0 42.66496-42.66496v-464.21504a42.66496 42.66496 0 0 0-42.66496-42.66496H640v-85.33504h170.66496c70.69184 0 128 57.30304 128 128z m-225.83296 225.83808a42.65472 42.65472 0 0 0-60.32896 0l-97.83296 97.82272V104.10496a42.66496 42.66496 0 0 0-85.32992 0v518.2208l-97.83296-97.82272a42.65472 42.65472 0 0 0-60.32896 0 42.65472 42.65472 0 0 0 0 60.32896l170.66496 170.66496a42.65472 42.65472 0 0 0 60.33408 0l170.66496-170.66496a42.6496 42.6496 0 0 0-0.01024-60.32896z" p-id="17326" fill="#ffffff"></path></svg>