<?xml version="1.0" standalone="no"?><!DOCTYPE svg PUBLIC "-//W3C//DTD SVG 1.1//EN" "http://www.w3.org/Graphics/SVG/1.1/DTD/svg11.dtd"><svg t="1498530540278" class="icon" style="" viewBox="0 0 1024 1024" version="1.1" xmlns="http://www.w3.org/2000/svg" p-id="15364" xmlns:xlink="http://www.w3.org/1999/xlink" width="64" height="64"><defs><style type="text/css"></style></defs><path d="M596.722 511.999 924.94 183.781c23.299-23.299 23.299-61.422 0-84.721s-61.422-23.299-84.721 0L512.001 427.278 183.781 99.06c-23.299-23.299-61.422-23.299-84.721 0s-23.299 61.422 0 84.721L427.28 511.999 99.06 840.219c-23.299 23.299-23.299 61.422 0 84.721s61.422 23.299 84.721 0l328.219-328.219L840.219 924.94c23.299 23.299 61.422 23.299 84.721 0s23.299-61.422 0-84.721L596.722 511.999z" p-id="15365" fill="#000000"></path></svg>