<?xml version="1.0" standalone="no"?><!DOCTYPE svg PUBLIC "-//W3C//DTD SVG 1.1//EN" "http://www.w3.org/Graphics/SVG/1.1/DTD/svg11.dtd"><svg t="1498529800556" class="icon" style="" viewBox="0 0 1024 1024" version="1.1" xmlns="http://www.w3.org/2000/svg" p-id="7865" xmlns:xlink="http://www.w3.org/1999/xlink" width="128" height="128"><defs><style type="text/css"></style></defs><path d="M442.94144 462.11584a25.54368 25.54368 0 0 1-25.53856 25.54368h-192.4096a25.5488 25.5488 0 0 1-25.53856-25.54368V269.71136a25.54368 25.54368 0 0 1 25.53856-25.53856h192.40448a25.53856 25.53856 0 0 1 25.53856 25.53856v192.40448z" fill="#FB6F85" p-id="7866"></path><path d="M442.94144 774.21056a25.54368 25.54368 0 0 1-25.53856 25.5488h-192.4096a25.5488 25.5488 0 0 1-25.53856-25.5488v-192.39936a25.54368 25.54368 0 0 1 25.53856-25.53856h192.40448a25.53856 25.53856 0 0 1 25.53856 25.53856v192.39936z" fill="#34BEF2" p-id="7867"></path><path d="M753.43872 774.21056a25.53856 25.53856 0 0 1-25.53856 25.5488H535.5008a25.5488 25.5488 0 0 1-25.54368-25.5488v-192.39936a25.5488 25.5488 0 0 1 25.54368-25.53856h192.39936a25.53856 25.53856 0 0 1 25.53856 25.53856v192.39936z" fill="#FEE262" p-id="7868"></path><path d="M669.06624 504.81664a25.856 25.856 0 0 1-36.5568 0L494.84288 367.15008a25.85088 25.85088 0 0 1 0.00512-36.5568l137.67168-137.66656a25.84576 25.84576 0 0 1 36.54656 0l137.6768 137.66656a25.85088 25.85088 0 0 1 0 36.55168l-137.6768 137.67168z" fill="#6ADC3D" p-id="7869"></path></svg>