<?xml version="1.0" standalone="no"?><!DOCTYPE svg PUBLIC "-//W3C//DTD SVG 1.1//EN" "http://www.w3.org/Graphics/SVG/1.1/DTD/svg11.dtd"><svg t="1498398034099" class="icon" style="" viewBox="0 0 1024 1024" version="1.1" xmlns="http://www.w3.org/2000/svg" p-id="3996" xmlns:xlink="http://www.w3.org/1999/xlink" width="32" height="32"><defs><style type="text/css"></style></defs><path d="M329.001 512c0 99.958 81.572 180.99 182.196 180.99s182.196-81.031 182.196-180.99c0 0 0 0 0 0 0-99.958-81.572-180.99-182.196-180.99-100.623 0-182.196 81.031-182.196 180.99 0 0 0 0 0 0z" p-id="3997" fill="#000000"></path><path d="M511.197 29.361c-268.065 0-485.455 215.982-485.455 482.639s217.391 482.639 485.455 482.639 485.455-215.982 485.455-482.639c0.202-266.657-217.391-482.639-485.455-482.639zM511.197 934.309c-234.682 0-424.924-189.033-424.924-422.309s190.241-422.309 424.924-422.309 424.924 189.033 424.924 422.309c0 233.074-190.241 422.309-424.924 422.309z" p-id="3998" fill="#000000"></path></svg>