<?xml version="1.0" standalone="no"?><!DOCTYPE svg PUBLIC "-//W3C//DTD SVG 1.1//EN" "http://www.w3.org/Graphics/SVG/1.1/DTD/svg11.dtd"><svg t="1498398136770" class="icon" style="" viewBox="0 0 1024 1024" version="1.1" xmlns="http://www.w3.org/2000/svg" p-id="8311" xmlns:xlink="http://www.w3.org/1999/xlink" width="32" height="32"><defs><style type="text/css"></style></defs><path d="M739.555556 312.888889 284.444444 312.888889l0 56.888889 455.111111 0L739.555556 312.888889zM739.555556 483.555556 284.444444 483.555556l0 56.888889 455.111111 0L739.555556 483.555556zM967.111111 28.444444 56.888889 28.444444c-34.133333 0-56.888889 22.755556-56.888889 56.888889l0 853.333333c0 34.133333 22.755556 56.888889 56.888889 56.888889l910.222222 0c34.133333 0 56.888889-22.755556 56.888889-56.888889l0-853.333333C1024 51.2 1001.244444 28.444444 967.111111 28.444444zM910.222222 881.777778 113.777778 881.777778l0-739.555556 796.444444 0L910.222222 881.777778zM739.555556 654.222222 284.444444 654.222222l0 56.888889 455.111111 0L739.555556 654.222222z" p-id="8312"></path></svg>