<?xml version="1.0" standalone="no"?><!DOCTYPE svg PUBLIC "-//W3C//DTD SVG 1.1//EN" "http://www.w3.org/Graphics/SVG/1.1/DTD/svg11.dtd"><svg t="1498398053017" class="icon" style="" viewBox="0 0 1024 1024" version="1.1" xmlns="http://www.w3.org/2000/svg" p-id="4789" xmlns:xlink="http://www.w3.org/1999/xlink" width="32" height="32"><defs><style type="text/css"></style></defs><path d="M768 0 256 0C114.215385 0 0 114.215385 0 256L0 768C0 909.784615 114.215385 1024 256 1024L768 1024C909.784615 1024 1024 909.784615 1024 768L1024 256C1024 114.215385 909.784615 0 768 0L768 0ZM945.230769 748.307692C945.230769 858.584615 858.584615 945.230769 748.307692 945.230769L275.692308 945.230769C165.415385 945.230769 78.769231 858.584615 78.769231 748.307692L78.769231 275.692308C78.769231 165.415385 165.415385 78.769231 275.692308 78.769231L748.307692 78.769231C858.584615 78.769231 945.230769 165.415385 945.230769 275.692308L945.230769 748.307692 945.230769 748.307692ZM425.353846 598.646154 256 425.353846 169.353846 512 425.353846 768 854.646154 342.646154 768 256 425.353846 598.646154 425.353846 598.646154Z" p-id="4790"></path></svg>