<?xml version="1.0" standalone="no"?><!DOCTYPE svg PUBLIC "-//W3C//DTD SVG 1.1//EN" "http://www.w3.org/Graphics/SVG/1.1/DTD/svg11.dtd"><svg t="1498400109141" class="icon" style="" viewBox="0 0 1024 1024" version="1.1" xmlns="http://www.w3.org/2000/svg" p-id="12876" xmlns:xlink="http://www.w3.org/1999/xlink" width="32" height="32"><defs><style type="text/css"></style></defs><path d="M872.336812 445.301925c-37.948287-19.212574-86.62901-18.606777-131.219577-0.172939-10.731412-42.794665-35.742039-84.248799-77.800947-105.494683-22.630417-11.423167-47.922453-17.438161-73.17151-17.438161-61.791321 0-117.480668 34.184567-145.325853 89.311095-47.186695 93.421716-14.993482 173.256996 19.104103 257.721713 20.358677 50.454112 41.410132 102.595656 50.194192 164.991752 1.535983 10.904351 8.372691 20.337187 18.259876 25.183566 4.630461 2.293229 9.649777 3.418866 14.647605 3.418866 5.690606 0 11.380188-1.471514 16.464997-4.370541 54.673204-31.198559 110.49251-45.910633 164.472935-60.146868 87.926562-23.150256 170.963767-45.001937 216.20311-134.529973C984.581222 583.725578 952.366519 485.673401 872.336812 445.301925zM884.841613 633.832789c-31.761378 62.828954-94.438882 79.31544-173.798325 100.215446-43.270503 11.423167-91.042529 23.971971-139.5278 45.867654-11.813047-50.972928-29.727045-95.369068-45.953611-135.567605-31.955806-79.142501-55.019081-136.347364-21.418822-202.898083 16.464997-32.583093 49.415456-52.79032 86.0007-52.79032 15.101953 0 29.641087 3.461845 43.206034 10.341532 34.076096 17.178241 48.463782 63.391772 47.446615 99.090832-0.38988 12.851703 6.728238 24.794709 18.238386 30.635741 11.510148 5.798053 25.313525 4.500501 35.46063-3.504824 33.015951-25.876344 78.666664-35.43914 107.874893-20.597107C889.687992 528.512069 908.749116 586.451666 884.841613 633.832789zM464.269929 739.933269c13.284561 12.678764 13.781888 33.707706 1.124614 46.992267-6.53381 6.836709-15.296381 10.298554-24.058952 10.298554-8.242731 0-16.486486-3.028986-22.933315-9.17394-45.607734-43.487444-93.054349-78.060867-138.943492-111.509676C175.002756 600.427982 76.344782 528.512069 63.298652 383.423623c-5.300726-58.978253 12.700253-116.528993 50.691519-162.049746s91.409896-73.517387 150.409638-78.796624c69.795623-6.447852 134.270053 30.80868 178.493254 79.488379 34.833343-55.733349 91.366917-103.764272 161.443949-110.081141 121.894188-11.164271 229.877551 79.31544 240.824881 201.12367 1.644453 18.303878-11.856026 34.443463-30.138414 36.087916-18.346857 1.298576-34.443463-11.856026-36.066427-30.116925-7.659447-85.373413-83.210144-148.939147-168.670537-140.890844-61.98575 5.582135-111.076818 65.426105-130.462331 118.692263-4.39203 12.115945-15.404852 20.554128-28.234041 21.721721-13.046131 1.341554-25.205055-5.236258-31.695886-16.356526-28.558429-48.982598-87.256296-99.17679-149.544945-93.465718-41.324174 3.721765-78.731132 23.280216-105.343233 55.17053s-39.225373 72.218812-35.503609 113.500007c10.341532 115.100458 89.225137 172.60822 189.094706 245.38985C364.010481 655.901411 415.481759 693.417863 464.269929 739.933269z" p-id="12877"></path></svg>