<?xml version="1.0" standalone="no"?><!DOCTYPE svg PUBLIC "-//W3C//DTD SVG 1.1//EN" "http://www.w3.org/Graphics/SVG/1.1/DTD/svg11.dtd"><svg t="1498400087860" class="icon" style="" viewBox="0 0 1024 1024" version="1.1" xmlns="http://www.w3.org/2000/svg" p-id="11324" xmlns:xlink="http://www.w3.org/1999/xlink" width="32" height="32"><defs><style type="text/css"></style></defs><path d="M372.284423 241.567801l279.43013 0 0-69.857021L372.284423 171.71078 372.284423 241.567801 372.284423 241.567801 372.284423 241.567801zM791.431665 241.567801l70.052472 0c18.983353 0 34.732036 16.232706 34.732036 36.950564l0 539.998681c0 20.617573-15.909341 36.950564-35.100426 36.950564L162.885276 855.467609c-19.230993 0-35.103496-16.272615-35.103496-36.950564l0-539.998681c0-20.705578 15.809057-36.950564 35.207873-36.950564l71.176063 0 0-69.857021-71.176063 0c-58.412364 0-105.064894 47.935756-105.064894 106.807584l0 539.998681c0 58.875922 46.752814 106.807584 104.960517 106.807584l698.231495 0c58.18826 0 104.956424-48.015573 104.956424-106.807584l0-539.998681c0-58.836013-46.544059-106.807584-104.589057-106.807584l-70.052472 0L791.431665 241.567801 791.431665 241.567801zM267.498892 133.396149c0-19.174712 15.501042-34.719756 34.92851-34.719756 19.290345 0 34.927487 15.541975 34.927487 34.719756l0 146.653081c0 19.174712-15.501042 34.720779-34.927487 34.720779-19.291368 0-34.92851-15.541975-34.92851-34.720779L267.498892 133.396149 267.498892 133.396149zM686.643064 133.36852c0-19.159362 15.505136-34.692127 34.932604-34.692127 19.287275 0 34.92851 15.529695 34.92851 34.692127l0 146.540518c0 19.159362-15.505136 34.69315-34.92851 34.69315-19.291368 0-34.932604-15.529695-34.932604-34.69315L686.643064 133.36852 686.643064 133.36852zM267.498892 457.488479c0-19.286252 15.71696-34.927487 35.167964-34.927487l418.668335 0c19.422352 0 35.167964 15.505136 35.167964 34.927487 0 19.291368-15.71696 34.932604-35.167964 34.932604L302.666856 492.421083C283.244504 492.421083 267.498892 476.915947 267.498892 457.488479L267.498892 457.488479zM267.498892 637.426641c0-19.291368 15.71696-34.92851 35.167964-34.92851l418.668335 0c19.422352 0 35.167964 15.501042 35.167964 34.92851 0 19.291368-15.71696 34.92851-35.167964 34.92851L302.666856 672.355151C283.244504 672.355151 267.498892 656.854109 267.498892 637.426641L267.498892 637.426641zM267.498892 637.426641" p-id="11325"></path></svg>