<?xml version="1.0" standalone="no"?><!DOCTYPE svg PUBLIC "-//W3C//DTD SVG 1.1//EN" "http://www.w3.org/Graphics/SVG/1.1/DTD/svg11.dtd"><svg t="1498400018353" class="icon" style="" viewBox="0 0 1024 1024" version="1.1" xmlns="http://www.w3.org/2000/svg" p-id="8983" xmlns:xlink="http://www.w3.org/1999/xlink" width="32" height="32"><defs><style type="text/css"></style></defs><path d="M105.198947 938.966325c-6.052856 0-12.225439-1.349741-18.021445-4.227278-20.12434-9.983375-28.321022-34.374902-18.358113-54.479799 66.030879-133.053342 165.979242-228.934063 281.924951-275.257088-14.071484-9.744945-27.369348-20.819165-39.733956-33.183773-53.824883-53.824883-83.436294-125.452223-83.376942-201.684442 0.059352-157.108201 127.695311-285.001009 284.485263-285.10027 0.059352 0 0.118704 0 0.158612 0 75.795267 0 147.065474 29.532617 200.691835 83.158978 53.824883 53.824883 83.436294 125.452223 83.396385 201.684442-0.059352 97.170087-48.90278 183.14725-123.229602 234.650251 115.985618 45.985334 215.994356 141.568273 282.024212 274.343275 9.983375 20.104897 1.806135 44.496423-18.298761 54.499242-20.144806 9.943466-44.536332 1.786693-54.499242-18.298761-80.975243-162.863275-219.208561-260.074294-369.787044-260.074294-0.099261 0-0.158612 0-0.257873 0-150.935618 0.099261-289.506627 97.825003-370.660948 261.384126C134.552485 930.689824 120.163777 938.966325 105.198947 938.966325zM512.279363 166.326143c-0.039909 0-0.079818 0-0.118704 0-112.016213 0.059352-203.172329 91.514273-203.232704 203.847711-0.039909 54.519708 21.116947 105.70446 59.560514 144.16747 38.264489 38.264489 89.132016 59.34255 143.214772 59.34255 0.039909 0 0.079818 0 0.118704 0 111.995747-0.059352 203.192795-91.514273 203.252147-203.847711 0.039909-54.519708-21.137413-105.70446-59.579957-144.16747C617.20918 187.404204 566.362118 166.326143 512.279363 166.326143z" p-id="8984"></path></svg>