<?xml version="1.0" standalone="no"?><!DOCTYPE svg PUBLIC "-//W3C//DTD SVG 1.1//EN" "http://www.w3.org/Graphics/SVG/1.1/DTD/svg11.dtd"><svg t="1498400034251" class="icon" style="" viewBox="0 0 1024 1024" version="1.1" xmlns="http://www.w3.org/2000/svg" p-id="9660" xmlns:xlink="http://www.w3.org/1999/xlink" width="32" height="32"><defs><style type="text/css"></style></defs><path d="M336.078 562.372c105.131-14.597 186.131-104.794 186.131-213.891 0-119.306-96.694-216.084-216.084-216.084-119.222 0-216 96.778-216 216.084 0 109.181 81 199.294 186.131 213.891v104.034h-139.894v59.737h139.894v139.978h59.822v-139.978h139.894v-59.737h-139.894v-104.034zM150.031 348.481c0-86.316 69.862-156.263 156.178-156.263s156.178 69.947 156.178 156.178c0 86.316-69.862 156.178-156.178 156.178-86.316 0.084-156.178-69.862-156.178-156.094v0z" p-id="9661"></path><path d="M501.706 677.797c0.084 119.306 96.778 216.084 216.169 216 119.306-0.084 216-96.778 215.916-216.169-0.084-109.181-81.084-199.294-186.216-213.891l-0.084-219.206 57.122 57.206 42.272-42.272-129.347-129.262-129.178 129.347 42.272 42.272 57.206-57.206 0.084 219.206c-105.3 14.597-186.216 104.878-186.216 213.975v0zM873.969 677.628c0.084 86.316-69.862 156.263-156.178 156.347s-156.178-69.863-156.262-156.178c0-86.316 69.863-156.178 156.178-156.263 86.316-0.084 156.262 69.862 156.262 156.094v0z" p-id="9662"></path></svg>