<?xml version="1.0" standalone="no"?><!DOCTYPE svg PUBLIC "-//W3C//DTD SVG 1.1//EN" "http://www.w3.org/Graphics/SVG/1.1/DTD/svg11.dtd"><svg t="1498398111818" class="icon" style="" viewBox="0 0 1024 1024" version="1.1" xmlns="http://www.w3.org/2000/svg" p-id="6975" xmlns:xlink="http://www.w3.org/1999/xlink" width="32" height="32"><defs><style type="text/css"></style></defs><path d="M337.125376 572.010496c-0.620544 0.790528-1.241088 1.622016-1.519616 2.623488l-47.884288 175.55456c-2.793472 10.221568 0.067584 21.233664 7.632896 28.997632 5.660672 5.5296 13.11744 8.566784 21.057536 8.566784 2.623488 0 5.251072-0.313344 7.837696-1.001472l174.307328-47.540224c0.280576 0 0.415744 0.243712 0.626688 0.243712 2.002944 0 3.969024-0.72704 5.453824-2.246656l466.106368-466.038784c13.84448-13.862912 21.438464-32.74752 21.438464-53.293056 0-23.281664-9.873408-46.553088-27.16672-63.797248l-44.019712-44.089344c-17.26464-17.291264-40.568832-27.183104-63.838208-27.183104-20.54144 0-39.424 7.593984-53.305344 21.42208L337.819648 570.390528C337.33632 570.832896 337.471488 571.4944 337.125376 572.010496M925.140992 225.527808l-46.297088 46.262272-75.053056-76.244992 45.641728-45.641728c7.213056-7.251968 21.194752-6.193152 29.48096 2.121728l44.048384 44.089344c4.59776 4.589568 7.2192 10.698752 7.2192 16.740352C930.152448 217.808896 928.38912 222.302208 925.140992 225.527808M420.020224 579.332096l336.334848-336.35328 75.08992 76.296192L495.734784 654.966784 420.020224 579.332096 420.020224 579.332096zM358.742016 715.700224l24.305664-89.212928 64.833536 64.83968L358.742016 715.700224 358.742016 715.700224zM954.662912 410.210304c-17.64352 0-32.110592 14.34624-32.178176 32.229376l0 434.50368c0 22.786048-18.50368 41.289728-41.324544 41.289728L146.14528 918.233088c-22.786048 0-41.363456-18.50368-41.363456-41.289728L104.781824 167.75168c0-22.80448 18.577408-41.330688 41.363456-41.330688l473.393152 0c17.741824 0 32.139264-14.40768 32.139264-32.155648 0-17.713152-14.39744-32.14336-32.139264-32.14336L141.242368 62.121984c-55.549952 0-100.759552 45.176832-100.759552 100.759552l0 718.964736c0 55.584768 45.2096 100.743168 100.759552 100.743168l744.781824 0c55.590912 0 100.777984-45.156352 100.777984-100.743168L986.802176 442.23488C986.732544 424.556544 972.302336 410.210304 954.662912 410.210304" p-id="6976"></path></svg>