<?xml version="1.0" standalone="no"?><!DOCTYPE svg PUBLIC "-//W3C//DTD SVG 1.1//EN" "http://www.w3.org/Graphics/SVG/1.1/DTD/svg11.dtd"><svg t="1498398082297" class="icon" style="" viewBox="0 0 1024 1024" version="1.1" xmlns="http://www.w3.org/2000/svg" p-id="5623" xmlns:xlink="http://www.w3.org/1999/xlink" width="32" height="32"><defs><style type="text/css"></style></defs><path d="M876.085 552.128v220.934c0 57.139-45.782 103.022-103.022 103.022H402.366c-57.139 0-103.022-45.731-103.022-103.022V402.366c0-57.139 45.731-103.022 103.022-103.022H694.27v-51.233H402.366a153.819 153.819 0 0 0-109.18 45.076 153.82 153.82 0 0 0-45.075 109.18v370.697a153.822 153.822 0 0 0 45.075 109.18 153.822 153.822 0 0 0 109.18 45.075h370.697c40.936 0.101 80.257-16.102 109.18-45.075a153.824 153.824 0 0 0 45.075-109.18V552.128h-51.233z" fill="" p-id="5624"></path><path d="M448.564 560.053c-11.206-11.206-29.377-11.206-40.583 0-11.256 11.257-11.256 29.377 0 40.684l125.282 125.232c5.603 5.653 12.972 8.43 20.342 8.43 7.37 0 14.689-2.777 20.291-8.379l327.843-327.843c11.256-11.257 11.256-29.428 0-40.634-11.206-11.307-29.428-11.307-40.583 0L553.604 665.044l-105.04-104.991zM542.841 147.915V96.682H250.937c-40.936-0.101-80.257 16.102-109.18 45.075C112.784 170.68 96.581 210 96.682 250.937v368.981h51.233V250.937c0-57.139 45.731-103.022 103.022-103.022h291.904z" fill="" p-id="5625"></path></svg>