<?xml version="1.0" standalone="no"?><!DOCTYPE svg PUBLIC "-//W3C//DTD SVG 1.1//EN" "http://www.w3.org/Graphics/SVG/1.1/DTD/svg11.dtd"><svg t="1498398070146" class="icon" style="" viewBox="0 0 1024 1024" version="1.1" xmlns="http://www.w3.org/2000/svg" p-id="5491" xmlns:xlink="http://www.w3.org/1999/xlink" width="32" height="32"><defs><style type="text/css"></style></defs><path d="M30.144 120.448c0-49.92 40.448-90.368 90.368-90.368 49.856 0 90.304 40.448 90.304 90.368S170.368 210.816 120.512 210.816C70.592 210.816 30.144 170.368 30.144 120.448zM0 120.448c0 66.56 53.952 120.448 120.512 120.448 66.496 0 120.448-53.952 120.448-120.448S187.008 0 120.512 0C53.952 0 0 53.952 0 120.448z" p-id="5492"></path><path d="M813.184 120.448c0-49.92 40.448-90.368 90.304-90.368 49.92 0 90.368 40.448 90.368 90.368s-40.448 90.368-90.368 90.368C853.632 210.816 813.184 170.368 813.184 120.448zM783.04 120.448c0 66.56 53.952 120.448 120.448 120.448 66.56 0 120.512-53.952 120.512-120.448S970.048 0 903.488 0C836.992 0 783.04 53.952 783.04 120.448z" p-id="5493"></path><path d="M30.144 903.488c0-49.856 40.448-90.304 90.368-90.304 49.856 0 90.304 40.448 90.304 90.304 0 49.92-40.448 90.368-90.304 90.368C70.592 993.856 30.144 953.408 30.144 903.488zM0 903.488C0 970.048 53.952 1024 120.512 1024c66.496 0 120.448-53.952 120.448-120.512 0-66.496-53.952-120.448-120.448-120.448C53.952 783.04 0 836.992 0 903.488z" p-id="5494"></path><path d="M421.632 903.488c0-49.856 40.448-90.304 90.368-90.304 49.856 0 90.368 40.448 90.368 90.304 0 49.92-40.512 90.368-90.368 90.368C462.08 993.856 421.632 953.408 421.632 903.488zM391.488 903.488C391.488 970.048 445.504 1024 512 1024s120.512-53.952 120.512-120.512c0-66.496-54.016-120.448-120.512-120.448S391.488 836.992 391.488 903.488z" p-id="5495"></path><path d="M421.632 512C421.632 462.08 462.08 421.632 512 421.632 561.856 421.632 602.368 462.08 602.368 512S561.856 602.368 512 602.368C462.08 602.368 421.632 561.92 421.632 512zM391.488 512c0 66.496 54.016 120.512 120.512 120.512S632.512 578.496 632.512 512c0-66.56-54.016-120.448-120.512-120.448S391.488 445.44 391.488 512z" p-id="5496"></path><path d="M813.184 512c0-49.92 40.448-90.368 90.304-90.368 49.92 0 90.368 40.448 90.368 90.368s-40.448 90.368-90.368 90.368C853.632 602.368 813.184 561.92 813.184 512zM783.04 512c0 66.496 53.952 120.512 120.448 120.512C970.048 632.512 1024 578.496 1024 512c0-66.56-53.952-120.448-120.512-120.448C836.992 391.552 783.04 445.44 783.04 512z" p-id="5497"></path><path d="M391.488 120.448C391.488 53.952 445.504 0 512 0s120.512 53.952 120.512 120.448S578.496 240.96 512 240.96 391.488 187.008 391.488 120.448z" p-id="5498"></path><path d="M0 512c0-66.56 53.952-120.448 120.512-120.448C187.008 391.552 240.96 445.44 240.96 512c0 66.496-53.952 120.512-120.448 120.512C53.952 632.512 0 578.496 0 512z" p-id="5499"></path><path d="M783.04 903.488c0-66.496 53.952-120.448 120.448-120.448 66.56 0 120.512 53.952 120.512 120.448C1024 970.048 970.048 1024 903.488 1024 836.992 1024 783.04 970.048 783.04 903.488z" p-id="5500"></path></svg>