<?xml version="1.0" standalone="no"?><!DOCTYPE svg PUBLIC "-//W3C//DTD SVG 1.1//EN" "http://www.w3.org/Graphics/SVG/1.1/DTD/svg11.dtd"><svg t="1498400055892" class="icon" style="" viewBox="0 0 1024 1024" version="1.1" xmlns="http://www.w3.org/2000/svg" p-id="10341" xmlns:xlink="http://www.w3.org/1999/xlink" width="32" height="32"><defs><style type="text/css"></style></defs><path d="M727.347626 598.100984c33.038464 0 59.839877-25.590841 59.839877-57.173141 0-31.582299-26.798343-57.170071-59.839877-57.170071-33.05279 0-59.839877 25.586748-59.839877 57.170071C667.50775 572.510142 694.295859 598.100984 727.347626 598.100984z" p-id="10342"></path><path d="M847.035566 657.340179c0-31.56695 0-48.409546-32.247448-48.409546l-16.125259 0-64.611553 128.576377 16.244986-112.438838-24.184819-26.892487-24.180725 26.892487 16.118096 112.947422-64.491827-129.077797-16.118096 0c-32.248472 0-32.248472 16.835434-32.248472 48.403406l0 96.804766L847.035566 754.145969 847.035566 657.340179z" p-id="10343"></path><path d="M214.19129 679.641091l186.129164 0 0 37.255509-186.129164 0 0-37.255509Z" p-id="10344"></path><path d="M921.484162 232.598522 586.450642 232.598522l0-74.507948c0 0 0-37.256532-37.22481-37.256532l-74.449619 0c-37.227879 0-37.227879 37.256532-37.227879 37.256532l0 74.507948-335.030449 0c-37.227879 0-37.227879 37.248346-37.227879 37.248346l0 596.061534c0 37.256532 37.227879 37.256532 37.227879 37.256532l818.966277 0c0 0 37.22481 0 37.22481-37.256532L958.708971 269.846868C958.708971 269.846868 958.708971 232.598522 921.484162 232.598522zM511.99693 151.879106c17.132192 0 31.025621 13.896498 31.025621 31.045063 0 17.145495-13.893428 31.04404-31.025621 31.04404s-31.017434-13.898545-31.017434-31.04404C480.979496 165.775604 494.864738 151.879106 511.99693 151.879106zM437.549358 269.846868l148.901285 0 0 37.256532L437.549358 307.1034 437.549358 269.846868zM921.484162 865.908402 102.518908 865.908402 102.518908 344.359932l818.966277 0L921.485185 865.908402z" p-id="10345"></path><path d="M214.19129 456.116225l335.034543 0 0 37.256532-335.034543 0 0-37.256532Z" p-id="10346"></path><path d="M214.19129 567.879682l260.584923 0 0 37.256532-260.584923 0 0-37.256532Z" p-id="10347"></path></svg>