<?xml version="1.0" standalone="no"?><!DOCTYPE svg PUBLIC "-//W3C//DTD SVG 1.1//EN" "http://www.w3.org/Graphics/SVG/1.1/DTD/svg11.dtd"><svg t="1498536884471" class="icon" style="" viewBox="0 0 1024 1024" version="1.1" xmlns="http://www.w3.org/2000/svg" p-id="16618" xmlns:xlink="http://www.w3.org/1999/xlink" width="64" height="64"><defs><style type="text/css"></style></defs><path d="M1000.964 443.606c-1.773-2.706-44.358-66.999-125.564-131.509-47.738-37.922-99.105-68.167-152.676-89.893-67.235-27.268-138.038-41.094-210.447-41.094-72.407 0-143.212 13.826-210.447 41.094-53.571 21.727-104.94 51.971-152.676 89.893-81.206 64.51-123.79 128.803-125.533 131.463-25.662 38.992-23.418 98.468 5.073 135.367 2.075 2.694 51.758 66.765 135.597 131.355 49.458 38.103 100.662 68.515 152.194 90.391 65.183 27.673 131.057 41.705 195.792 41.705 64.736 0 130.609-14.032 195.792-41.705 51.531-21.877 102.735-52.29 152.195-90.391 83.839-64.591 133.523-128.66 135.626-131.393 28.289-36.896 30.53-96.301 5.075-135.282zM949.684 543.369c-0.47 0.609-47.978 61.666-126.203 121.679-70.794 54.309-182.249 119.051-311.203 119.051-128.954 0-240.411-64.739-311.203-119.051-78.224-60.011-125.732-121.068-126.22-121.699-13.318-17.247-14.534-49.539-2.543-67.757 0.394-0.597 40.234-60.369 114.668-119.104 98.468-77.699 207.913-117.097 325.297-117.097s226.83 39.395 325.297 117.094c74.434 58.734 114.274 118.508 114.618 119.027 11.92 18.255 10.702 50.624-2.509 67.857zM511.984 331.855c-47.771 0-92.631 18.737-126.317 52.758-33.598 33.933-52.101 79.065-52.101 127.079 0 48.037 18.5 93.188 52.094 127.14 33.687 34.045 78.548 52.797 126.324 52.797 98.27 0 178.218-80.719 178.218-179.936 0-99.163-79.948-179.838-178.218-179.838zM511.984 633.348c-66.243 0-120.137-54.574-120.137-121.654 0-67.027 53.893-121.558 120.137-121.558 66.134 0 119.939 54.531 119.939 121.558 0 67.082-53.805 121.654-119.939 121.654z" fill="#ffffff" p-id="16619"></path></svg>